<?xml version="1.0" standalone="no"?>
<!DOCTYPE svg PUBLIC "-//W3C//DTD SVG 20010904//EN"
 "http://www.w3.org/TR/2001/REC-SVG-20010904/DTD/svg10.dtd">
<svg version="1.0" xmlns="http://www.w3.org/2000/svg"
 width="300.000000pt" height="300.000000pt" viewBox="0 0 300.000000 300.000000"
 preserveAspectRatio="xMidYMid meet">
<metadata>
Created by potrace 1.10, written by Peter Selinger 2001-2011
</metadata>
<g transform="translate(0.000000,300.000000) scale(0.100000,-0.100000)"
fill="#000000" stroke="none">
<path d="M1351 2385 c-277 -52 -509 -230 -636 -488 -62 -127 -86 -225 -90
-371 -5 -187 33 -335 123 -488 110 -186 293 -330 507 -398 89 -28 317 -39 404
-20 143 31 351 126 335 152 -4 6 -3 8 3 5 17 -11 108 69 176 154 236 295 278
647 117 974 -113 227 -326 401 -575 466 -103 27 -265 33 -364 14z m367 -34
c152 -41 295 -125 403 -237 155 -163 234 -346 246 -569 9 -179 -57 -390 -146
-467 -46 -39 -80 -53 -217 -92 -50 -13 -118 -41 -152 -60 -80 -47 -192 -91
-270 -107 -73 -14 -181 -7 -233 15 -49 20 -94 69 -108 116 -18 62 -57 98 -155
146 -98 47 -166 104 -195 163 -23 47 -48 148 -57 233 -4 37 -9 66 -13 64 -3
-2 -6 51 -7 117 0 67 2 106 4 87 4 -30 7 -24 18 39 7 40 10 80 7 89 -4 10 -2
13 5 8 7 -4 12 -1 12 7 0 8 18 51 41 96 44 88 127 186 209 246 60 44 175 101
243 120 71 20 266 13 365 -14z m-724 -163 c-12 -20 -58 -82 -65 -88 -4 -3 -19
-27 -34 -55 -16 -27 -31 -52 -34 -55 -12 -10 -32 -52 -22 -46 6 4 3 -13 -6
-38 -9 -25 -19 -43 -22 -41 -3 1 -7 -25 -9 -59 -2 -33 -5 -74 -6 -91 -1 -16 2
-36 8 -44 8 -11 8 -13 0 -8 -8 4 -10 -10 -8 -46 l3 -52 -10 55 c-5 30 -12 60
-14 65 -7 13 4 -101 12 -134 4 -17 2 -22 -6 -17 -6 4 -11 18 -11 31 0 13 -4
26 -8 29 -4 2 -6 -11 -4 -30 2 -19 8 -34 13 -34 5 0 10 -10 10 -22 1 -21 2
-21 6 -3 3 11 8 24 12 28 8 8 12 -24 13 -105 0 -27 4 -48 10 -48 5 0 6 -5 3
-10 -5 -8 -11 -7 -21 1 -12 10 -13 9 -8 -5 4 -10 12 -15 19 -12 6 2 18 0 26
-5 12 -7 12 -9 -1 -10 -8 -1 -19 -1 -23 0 -5 1 -6 -3 -2 -9 3 -6 11 -8 16 -5
5 3 6 -2 2 -11 -4 -11 -2 -15 4 -11 6 4 9 -3 7 -19 -1 -15 7 -36 22 -53 17
-21 21 -31 12 -34 -9 -4 -8 -6 3 -6 8 -1 24 -9 35 -19 10 -9 32 -23 48 -30 16
-7 26 -15 24 -18 -5 -5 -36 6 -87 30 -13 6 -31 11 -40 11 -9 0 -15 6 -13 15 2
8 0 12 -4 8 -4 -4 -13 -3 -21 3 -9 8 -13 8 -13 1 0 -13 39 -37 60 -37 8 0 15
-5 15 -12 0 -6 4 -15 9 -20 5 -5 6 -3 2 5 -4 6 -3 12 2 12 15 0 33 -26 24 -35
-4 -5 -1 -5 6 -1 7 4 20 2 29 -6 12 -9 15 -9 9 -1 -5 9 -2 11 8 7 9 -3 13 -11
9 -18 -4 -7 -1 -6 7 1 11 10 17 9 32 -4 10 -9 18 -12 18 -7 0 5 7 -1 15 -13
10 -15 24 -20 45 -19 36 3 81 -37 100 -87 18 -48 54 -116 58 -112 2 2 16 -7
30 -20 14 -13 29 -22 33 -19 4 2 6 -4 5 -13 -2 -9 -9 -19 -17 -21 -11 -3 -12
-2 -1 6 11 7 11 10 -3 15 -9 4 -14 3 -10 -3 11 -17 -56 2 -120 35 l-30 15 23
-19 c59 -51 219 -79 261 -47 11 8 13 8 7 -1 -9 -17 58 -9 148 16 37 10 69 15
72 10 3 -5 13 -5 22 0 9 5 25 12 35 15 10 3 16 10 13 15 -3 5 1 11 9 14 11 5
12 1 5 -19 -12 -32 -12 -34 0 -34 6 0 10 7 10 15 0 8 6 24 12 35 12 19 13 19
23 0 10 -18 13 -19 30 -6 19 14 19 15 -4 9 -17 -4 -22 -3 -17 5 4 7 15 12 24
12 15 0 15 2 2 10 -12 8 -9 10 10 8 16 -2 24 2 23 10 -2 6 3 12 10 13 6 1 21
2 32 3 11 0 19 6 18 12 -1 6 3 11 10 12 7 0 38 10 69 21 31 11 67 17 79 14 15
-4 26 0 35 12 8 11 14 15 14 11 0 -4 15 4 33 18 19 15 37 26 40 26 12 0 7 -29
-7 -47 -8 -10 -35 -45 -60 -78 -24 -33 -57 -71 -72 -85 -16 -14 -23 -18 -16
-9 6 9 9 18 7 21 -3 3 6 13 20 22 14 9 23 21 20 26 -4 6 -1 10 6 10 7 0 9 3 6
7 -4 3 -17 -3 -30 -13 -12 -11 -35 -28 -50 -38 -16 -10 -26 -23 -24 -30 3 -7
-1 -13 -9 -13 -7 0 -10 5 -7 11 4 6 -1 5 -10 -3 -9 -7 -17 -10 -17 -5 0 5 -7
1 -15 -10 -7 -10 -18 -15 -23 -12 -6 3 -8 -2 -5 -14 3 -12 0 -20 -6 -20 -7 0
-9 5 -6 10 3 6 1 10 -4 10 -15 0 -14 -13 2 -29 10 -11 9 -13 -5 -8 -10 4 -18
2 -18 -3 0 -5 -7 -6 -17 -3 -12 5 -14 3 -8 -7 6 -10 4 -12 -8 -7 -11 4 -17 1
-17 -8 0 -11 -8 -9 -34 8 -21 14 -29 25 -22 29 15 10 -4 9 -29 -2 -16 -7 -17
-9 -3 -9 9 -1 30 -12 45 -26 l28 -25 -30 12 c-16 7 -33 17 -36 22 -4 4 -13 6
-20 4 -9 -3 -1 -11 19 -22 51 -26 30 -32 -23 -6 -25 12 -49 20 -52 17 -3 -3
12 -13 32 -22 21 -8 35 -18 32 -21 -8 -9 -127 39 -121 48 7 11 -8 10 -26 -2
-13 -9 -13 -10 0 -10 8 -1 38 -12 65 -26 52 -25 44 -27 -41 -9 -28 6 -28 5 6
-15 35 -20 35 -20 5 -13 -16 5 -78 8 -137 8 -60 0 -108 4 -108 9 0 4 -13 6
-30 4 -16 -3 -30 -1 -30 4 0 5 -6 8 -12 7 -7 -1 -22 1 -33 5 -11 4 -33 13 -50
19 -152 54 -284 148 -383 275 -19 23 -31 42 -27 42 3 0 -3 10 -15 22 -19 20
-23 32 -17 43 1 2 -9 12 -22 22 l-25 17 40 18 c38 18 34 19 -13 4 -16 -5 -23
-3 -23 5 0 7 -7 21 -17 31 -9 11 -11 18 -5 18 7 0 12 5 12 11 0 5 -4 8 -9 4
-12 -7 -30 25 -24 43 3 7 0 19 -7 26 -7 10 -8 16 0 21 15 9 12 25 -5 25 -19 0
-19 19 0 44 19 25 19 36 1 36 -8 0 -16 -8 -19 -17 -3 -17 -2 31 4 163 1 27 0
55 -4 61 -8 12 16 36 26 26 4 -3 7 -3 7 1 0 3 -10 11 -22 15 l-23 9 25 10 c20
9 21 11 6 11 -14 1 -16 4 -7 14 6 8 8 17 4 20 -3 4 -1 7 6 7 7 0 10 4 7 9 -8
12 4 42 14 36 4 -3 11 7 15 23 18 74 109 247 125 237 5 -3 12 0 16 6 4 8 3 9
-4 5 -18 -11 -14 10 5 25 15 12 16 12 8 -1 -8 -13 -7 -13 8 -1 18 15 23 26 7
16 -5 -3 -10 -2 -10 4 0 8 119 121 128 121 2 0 0 -6 -4 -12z"/>
<path d="M1377 2233 c-10 -9 -8 -56 2 -72 15 -24 61 2 61 33 0 32 -44 59 -63
39z"/>
<path d="M1536 2199 c-10 -51 -8 -59 19 -59 14 0 25 5 25 10 0 6 -6 10 -12 10
-9 0 -8 4 2 10 13 9 13 11 0 20 -13 8 -12 10 3 10 9 0 17 5 17 10 0 6 -4 10
-9 10 -5 0 -16 2 -24 6 -10 3 -16 -4 -21 -27z"/>
<path d="M1686 2148 c4 -24 9 -45 11 -47 2 -3 18 9 35 27 24 23 29 35 21 43
-8 8 -15 4 -27 -12 l-16 -23 0 27 c0 17 -5 27 -15 27 -12 0 -14 -8 -9 -42z"/>
<path d="M1830 2090 c-18 -25 -19 -34 -10 -45 7 -8 18 -15 26 -15 15 0 28 35
19 50 -3 6 1 7 9 4 23 -9 20 13 -3 26 -16 8 -23 5 -41 -20z"/>
<path d="M1944 1999 c-28 -30 -28 -31 -10 -45 26 -19 40 -18 32 2 -4 10 1 25
11 36 11 12 13 22 7 28 -7 7 -20 0 -40 -21z"/>
<path d="M2046 1897 c-38 -27 2 -95 42 -71 24 16 28 55 6 71 -10 7 -21 13 -24
13 -3 0 -14 -6 -24 -13z"/>
<path d="M908 1783 c-25 -6 -22 -23 3 -23 32 0 119 -91 119 -124 0 -26 -25
-206 -36 -258 -3 -17 -15 -30 -32 -37 -22 -8 -15 -10 42 -10 60 -1 67 1 52 12
-16 12 -17 21 -7 108 16 138 10 199 -22 248 -19 28 -23 41 -14 41 26 0 83 -75
137 -178 29 -56 56 -100 58 -97 3 3 11 0 18 -5 9 -8 9 -18 1 -40 -14 -38 -27
-34 -52 16 -11 21 -23 41 -27 42 -5 2 -8 8 -8 12 0 18 -42 80 -51 74 -5 -3 18
-59 51 -124 56 -111 80 -143 80 -104 0 22 116 225 123 217 4 -3 7 -1 7 5 0 7
-5 12 -11 12 -13 0 32 83 46 83 10 1 39 -129 51 -223 5 -46 17 -87 37 -127 16
-34 2 -38 -25 -8 -34 36 -56 102 -72 213 -4 27 -13 38 -23 28 -9 -9 15 -152
34 -196 17 -41 57 -86 95 -106 31 -16 124 -19 133 -4 4 6 -6 10 -24 10 -42 0
-87 42 -106 99 -13 40 -40 177 -71 364 -4 20 -10 37 -14 37 -4 0 -43 -63 -86
-139 -44 -77 -82 -137 -85 -133 -3 4 -32 57 -63 117 -32 61 -70 123 -84 139
-47 50 -118 74 -174 59z"/>
<path d="M2127 1744 c-28 -15 -29 -38 -2 -27 8 3 15 0 15 -6 0 -14 37 -15 45
-1 9 15 -4 50 -18 50 -7 -1 -25 -8 -40 -16z"/>
<path d="M1550 1731 c0 -5 9 -11 20 -14 19 -5 20 -14 20 -185 0 -176 0 -179
-22 -190 -18 -8 -4 -11 72 -11 90 0 94 1 67 15 l-27 15 2 172 c3 168 4 172 26
182 41 18 23 25 -68 25 -49 0 -90 -4 -90 -9z m107 -194 c1 -92 -2 -169 -7
-172 -4 -3 -14 -3 -22 0 -10 4 -13 39 -12 165 2 159 6 184 27 177 8 -2 13 -54
14 -170z"/>
<path d="M1822 1726 c16 -12 12 -21 -52 -106 -39 -52 -70 -96 -70 -100 0 -3
47 -62 104 -131 84 -102 114 -131 157 -153 56 -27 100 -33 143 -16 38 14 32
27 -14 33 -57 7 -95 40 -206 177 -53 66 -100 123 -105 126 -5 3 19 39 53 80
42 52 71 77 90 81 53 10 28 23 -44 23 -63 -1 -71 -3 -56 -14z m14 -276 c106
-131 107 -132 149 -172 25 -24 33 -38 23 -38 -27 0 -102 66 -178 156 -40 49
-80 97 -88 106 -12 15 -12 20 -2 33 7 9 16 12 20 8 4 -4 38 -46 76 -93z"/>
<path d="M2168 1603 c-19 -5 -22 -12 -12 -37 8 -21 24 -20 25 2 0 10 3 12 6 5
7 -20 26 -15 19 5 -5 14 -4 14 9 -2 18 -23 29 -16 20 13 -6 21 -27 25 -67 14z"/>
<path d="M2170 1451 c0 -5 6 -12 13 -14 10 -4 10 -6 0 -6 -7 -1 -13 -7 -13
-15 0 -9 10 -13 33 -10 17 1 35 3 40 3 4 1 7 12 7 26 0 23 -4 25 -40 25 -22 0
-40 -4 -40 -9z"/>
<path d="M819 1988 c-51 -95 -67 -128 -58 -123 11 7 82 145 74 145 -2 0 -10
-10 -16 -22z"/>
<path d="M724 1656 c-14 -15 -24 -76 -12 -76 4 0 8 13 8 28 0 15 5 33 12 40 6
6 10 14 7 16 -2 2 -9 -1 -15 -8z"/>
<path d="M731 1543 c0 -17 4 -35 9 -38 6 -4 7 -11 4 -17 -4 -6 -2 -8 4 -4 6 3
15 -6 21 -21 l11 -28 -6 29 c-3 17 -11 35 -19 40 -8 6 -16 25 -18 41 l-4 30
-2 -32z"/>
<path d="M691 1478 c-1 -21 3 -38 8 -38 5 0 13 -9 16 -21 4 -11 9 -18 12 -16
2 3 -1 16 -8 29 -7 12 -16 37 -20 53 -7 30 -7 29 -8 -7z"/>
<path d="M721 1485 c0 -19 24 -53 53 -76 l29 -22 -12 21 c-6 12 -16 22 -20 22
-5 0 -18 15 -30 33 -11 17 -21 28 -20 22z"/>
<path d="M690 1359 c0 -5 5 -15 10 -22 39 -46 50 -61 50 -69 0 -4 5 -8 10 -8
6 0 -1 17 -15 37 -14 21 -25 43 -25 49 0 7 -7 14 -15 18 -8 3 -15 1 -15 -5z"/>
<path d="M1911 881 c-7 -5 -21 -6 -31 -4 -10 3 -21 0 -24 -6 -4 -7 0 -10 11
-8 10 1 18 -2 18 -8 0 -5 -8 -10 -18 -10 -10 -1 -23 -8 -30 -15 -10 -10 -8
-11 8 -3 30 15 51 5 28 -14 -16 -13 -16 -13 5 -3 13 7 21 14 18 17 -3 3 2 12
12 19 13 10 14 13 3 14 -11 0 -9 4 5 15 21 16 18 20 -5 6z"/>
<path d="M1671 772 c-12 -22 9 -54 28 -42 10 6 8 10 -8 15 -21 6 -22 8 -5 26
9 10 12 19 6 19 -6 0 -16 -8 -21 -18z"/>
</g>
</svg>
